<svg width="500" height="500" viewBox="0 0 500 500" fill="none" xmlns="http://www.w3.org/2000/svg">
<g clip-path="url(#clip0_99_256)">
<g clip-path="url(#clip1_99_256)">
<path fill-rule="evenodd" clip-rule="evenodd" d="M51.9911 278.305C50.6779 269.057 50 259.607 50 250C50 139.618 139.616 50 250 50C360.382 50 450 139.618 450 250C450 259.607 449.32 269.057 448.009 278.305C446.51 288.86 444.188 299.152 441.106 309.113L325.425 193.432L118.347 400.51C111.651 394.648 105.352 388.347 99.4902 381.653L231.143 250L174.575 193.432L136.862 231.143L174.575 268.857L155.719 287.713L118.007 250L58.8938 309.113C55.8124 299.152 53.4885 288.86 51.9911 278.305ZM423.296 253.591C423.32 252.397 423.333 251.2 423.333 250C423.333 154.335 345.665 76.6673 250 76.6673C154.335 76.6673 76.6655 154.335 76.6655 250C76.6655 251.2 76.6779 252.397 76.7026 253.591L174.575 155.719L250 231.143L325.425 155.719L423.296 253.591Z" fill="white"/>
</g>
</g>
<defs>
<clipPath id="clip0_99_256">
<rect width="500" height="500" fill="white"/>
</clipPath>
<clipPath id="clip1_99_256">
<rect width="500" height="500" fill="white"/>
</clipPath>
</defs>
</svg>
