<svg width="500" height="586" viewBox="0 0 500 586" fill="none" xmlns="http://www.w3.org/2000/svg">
<g clip-path="url(#clip0_99_270)">
<g clip-path="url(#clip1_99_270)">
<path d="M50.0068 489.772V451.024H79.2397V458.22H58.9591V489.772H50.0068ZM58.2959 475.657V468.461H76.8635V475.657H58.2959Z" fill="#025951"/>
<path d="M97.1541 490.437C94.5569 490.437 92.1254 489.938 89.9702 488.997C87.7598 488.001 85.9915 486.617 84.5547 484.79L89.5281 478.812C90.5781 480.251 91.6833 481.248 92.899 481.967C94.0595 482.687 95.3305 483.074 96.712 483.074C100.359 483.074 102.183 480.916 102.183 476.653V458.22H88.5887V451.024H111.08V476.155C111.08 480.916 109.919 484.514 107.543 486.894C105.167 489.219 101.741 490.437 97.1541 490.437Z" fill="#025951"/>
<path d="M125.471 489.772V451.024H154.704V458.22H134.368V482.576H155.422V489.772H125.471ZM133.705 473.609V466.634H152.327V473.609H133.705Z" fill="#025951"/>
<path d="M168.086 489.772V451.024H177.038V482.466H196.435V489.772H168.086Z" fill="#025951"/>
<path d="M207.008 489.772V451.024H224.581C228.78 451.024 232.483 451.799 235.688 453.404C238.893 455.009 241.38 457.279 243.203 460.157C244.972 463.036 245.911 466.468 245.911 470.398C245.911 474.328 244.972 477.705 243.203 480.639C241.38 483.517 238.893 485.787 235.688 487.392C232.483 488.997 228.78 489.772 224.581 489.772H207.008ZM215.96 482.41H224.139C226.736 482.41 228.946 481.912 230.825 480.971C232.759 479.975 234.196 478.591 235.246 476.764C236.296 474.993 236.849 472.834 236.849 470.398C236.849 467.907 236.296 465.804 235.246 463.977C234.196 462.206 232.759 460.822 230.825 459.825C228.946 458.884 226.736 458.386 224.139 458.386H215.96V482.41Z" fill="#025951"/>
<path d="M258.18 489.772V451.024H265.585L282.052 478.369H278.129L294.32 451.024H301.67L301.78 489.772H293.381L293.325 463.922H294.873L281.942 485.676H277.908L264.7 463.922H266.579V489.772H258.18Z" fill="#025951"/>
<path d="M311.373 489.772L328.614 451.024H337.456L354.753 489.772H345.358L331.212 455.563H334.748L320.546 489.772H311.373ZM319.994 481.469L322.37 474.661H342.264L344.695 481.469H319.994Z" fill="#025951"/>
<path d="M364.322 489.772V451.024H371.727L394.55 478.923H390.958V451.024H399.8V489.772H392.45L369.572 461.874H373.164V489.772H364.322Z" fill="#025951"/>
<path d="M414.512 489.772V451.024H421.917L444.739 478.923H441.147V451.024H449.989V489.772H442.639L419.761 461.874H423.353V489.772H414.512Z" fill="#025951"/>
<path d="M134.69 535.2C132.627 535.2 130.674 534.905 128.759 534.352C126.88 533.798 125.332 533.097 124.19 532.211L126.217 527.709C127.322 528.484 128.611 529.148 130.122 529.628C131.669 530.145 133.179 530.403 134.727 530.403C135.906 530.403 136.864 530.292 137.6 530.034C138.337 529.813 138.853 529.48 139.184 529.074C139.516 528.632 139.7 528.152 139.7 527.635C139.7 526.934 139.442 526.381 138.89 525.975C138.337 525.569 137.637 525.237 136.753 524.978C135.869 524.72 134.874 524.462 133.806 524.24C132.737 524.019 131.669 523.723 130.601 523.391C129.532 523.059 128.574 522.616 127.69 522.063C126.806 521.509 126.069 520.808 125.517 519.922C125.001 519.037 124.706 517.893 124.706 516.527C124.706 515.051 125.111 513.723 125.885 512.505C126.696 511.287 127.911 510.328 129.495 509.59C131.116 508.851 133.143 508.482 135.574 508.482C137.195 508.482 138.779 508.667 140.363 509.073C141.948 509.442 143.347 510.032 144.526 510.77L142.684 515.31C141.469 514.608 140.29 514.092 139.074 513.76C137.858 513.464 136.679 513.28 135.537 513.28C134.358 513.28 133.437 513.427 132.701 513.686C131.964 513.944 131.448 514.313 131.116 514.756C130.785 515.199 130.637 515.679 130.637 516.232C130.637 516.896 130.895 517.45 131.448 517.856C132.001 518.262 132.701 518.594 133.585 518.815C134.469 519.074 135.464 519.332 136.532 519.553C137.6 519.775 138.669 520.07 139.737 520.402C140.805 520.734 141.763 521.177 142.647 521.694C143.532 522.247 144.268 522.949 144.784 523.834C145.337 524.72 145.632 525.827 145.632 527.192C145.632 528.632 145.226 529.96 144.416 531.178C143.605 532.396 142.426 533.355 140.805 534.093C139.184 534.831 137.158 535.2 134.69 535.2Z" fill="#025951"/>
<path d="M165.919 535.2C163.856 535.2 161.977 534.868 160.283 534.204C158.551 533.54 157.041 532.58 155.788 531.399C154.535 530.182 153.541 528.779 152.841 527.156C152.141 525.532 151.772 523.76 151.772 521.841C151.772 519.922 152.141 518.151 152.841 516.527C153.541 514.904 154.535 513.501 155.788 512.283C157.041 511.066 158.551 510.143 160.283 509.479C161.977 508.815 163.856 508.482 165.882 508.482C167.945 508.482 169.787 508.815 171.519 509.479C173.214 510.143 174.724 511.066 175.977 512.283C177.229 513.464 178.224 514.904 178.924 516.49C179.624 518.114 179.992 519.922 179.992 521.841C179.992 523.76 179.624 525.532 178.924 527.192C178.224 528.816 177.229 530.218 175.977 531.399C174.724 532.617 173.214 533.54 171.519 534.204C169.787 534.868 167.945 535.2 165.919 535.2ZM165.882 530.108C167.024 530.108 168.093 529.923 169.087 529.517C170.045 529.111 170.893 528.558 171.629 527.82C172.366 527.082 172.919 526.196 173.324 525.2C173.729 524.166 173.95 523.059 173.95 521.841C173.95 520.624 173.729 519.48 173.324 518.483C172.919 517.487 172.366 516.601 171.629 515.863C170.893 515.125 170.045 514.571 169.087 514.166C168.093 513.76 167.024 513.575 165.882 513.575C164.74 513.575 163.672 513.76 162.677 514.166C161.719 514.571 160.872 515.125 160.135 515.863C159.398 516.601 158.846 517.487 158.441 518.483C158.035 519.517 157.814 520.624 157.814 521.841C157.814 523.059 158.035 524.166 158.441 525.2C158.846 526.196 159.398 527.082 160.135 527.82C160.835 528.558 161.719 529.111 162.677 529.517C163.672 529.923 164.74 530.108 165.882 530.108Z" fill="#025951"/>
<path d="M188.162 534.758V508.925H194.13V529.886H207.061V534.758H188.162Z" fill="#025951"/>
<path d="M225.237 535.2C221.59 535.2 218.716 534.167 216.653 532.137C214.59 530.108 213.559 527.192 213.559 523.391V508.925H219.527V523.17C219.527 525.642 220.043 527.414 221.037 528.484C222.069 529.591 223.469 530.108 225.274 530.108C227.116 530.108 228.516 529.591 229.51 528.484C230.505 527.414 231.021 525.642 231.021 523.17V508.925H236.915V523.391C236.915 527.192 235.884 530.108 233.821 532.137C231.758 534.167 228.884 535.2 225.237 535.2Z" fill="#025951"/>
<path d="M251.305 534.758V513.797H243.053V508.925H265.525V513.797H257.273V534.758H251.305Z" fill="#025951"/>
<path d="M278.376 508.925H272.408V534.758H278.376V508.925Z" fill="#025951"/>
<path d="M300.711 535.2C298.648 535.2 296.769 534.868 295.075 534.204C293.343 533.54 291.833 532.58 290.58 531.399C289.327 530.182 288.333 528.779 287.633 527.156C286.933 525.532 286.564 523.76 286.564 521.841C286.564 519.922 286.933 518.151 287.633 516.527C288.333 514.904 289.327 513.501 290.58 512.283C291.833 511.066 293.343 510.143 295.075 509.479C296.769 508.815 298.648 508.482 300.674 508.482C302.737 508.482 304.579 508.815 306.311 509.479C308.006 510.143 309.516 511.066 310.769 512.283C312.021 513.464 313.016 514.904 313.716 516.49C314.416 518.114 314.784 519.922 314.784 521.841C314.784 523.76 314.416 525.532 313.716 527.192C313.016 528.816 312.021 530.218 310.769 531.399C309.516 532.617 308.006 533.54 306.311 534.204C304.579 534.868 302.737 535.2 300.711 535.2ZM300.674 530.108C301.816 530.108 302.885 529.923 303.879 529.517C304.837 529.111 305.685 528.558 306.421 527.82C307.158 527.082 307.711 526.196 308.116 525.2C308.521 524.166 308.742 523.059 308.742 521.841C308.742 520.624 308.521 519.48 308.116 518.483C307.711 517.487 307.158 516.601 306.421 515.863C305.685 515.125 304.837 514.571 303.879 514.166C302.885 513.76 301.816 513.575 300.674 513.575C299.532 513.575 298.464 513.76 297.469 514.166C296.511 514.571 295.664 515.125 294.927 515.863C294.19 516.601 293.638 517.487 293.233 518.483C292.827 519.517 292.606 520.624 292.606 521.841C292.606 523.059 292.827 524.166 293.233 525.2C293.638 526.196 294.19 527.082 294.927 527.82C295.627 528.558 296.511 529.111 297.469 529.517C298.464 529.923 299.532 530.108 300.674 530.108Z" fill="#025951"/>
<path d="M322.955 534.758V508.925H327.892L343.107 527.525H340.712V508.925H346.607V534.758H341.707L326.455 516.158H328.85V534.758H322.955Z" fill="#025951"/>
<path d="M364.886 535.2C362.823 535.2 360.871 534.905 358.955 534.352C357.076 533.798 355.529 533.097 354.387 532.211L356.413 527.709C357.518 528.484 358.808 529.148 360.318 529.628C361.865 530.145 363.376 530.403 364.923 530.403C366.102 530.403 367.06 530.292 367.797 530.034C368.533 529.813 369.049 529.48 369.381 529.074C369.712 528.632 369.897 528.152 369.897 527.635C369.897 526.934 369.639 526.381 369.086 525.975C368.533 525.569 367.833 525.237 366.949 524.978C366.065 524.72 365.07 524.462 364.002 524.24C362.934 524.019 361.865 523.723 360.797 523.391C359.729 523.059 358.771 522.616 357.887 522.063C357.002 521.509 356.266 520.808 355.713 519.922C355.197 519.037 354.902 517.893 354.902 516.527C354.902 515.051 355.308 513.723 356.081 512.505C356.892 511.287 358.108 510.328 359.692 509.59C361.313 508.851 363.339 508.482 365.77 508.482C367.391 508.482 368.976 508.667 370.56 509.073C372.144 509.442 373.544 510.032 374.723 510.77L372.881 515.31C371.665 514.608 370.486 514.092 369.27 513.76C368.055 513.464 366.876 513.28 365.734 513.28C364.555 513.28 363.634 513.427 362.897 513.686C362.16 513.944 361.644 514.313 361.313 514.756C360.981 515.199 360.834 515.679 360.834 516.232C360.834 516.896 361.092 517.45 361.644 517.856C362.197 518.262 362.897 518.594 363.781 518.815C364.665 519.074 365.66 519.332 366.728 519.553C367.797 519.775 368.865 520.07 369.933 520.402C371.002 520.734 371.96 521.177 372.844 521.694C373.728 522.247 374.465 522.949 374.98 523.834C375.533 524.72 375.828 525.827 375.828 527.192C375.828 528.632 375.423 529.96 374.612 531.178C373.802 532.396 372.623 533.355 371.002 534.093C369.381 534.831 367.355 535.2 364.886 535.2Z" fill="#025951"/>
<path fill-rule="evenodd" clip-rule="evenodd" d="M51.991 278.525C50.6778 269.261 49.9999 259.795 49.9999 250.172C49.9999 139.601 139.616 49.8301 250 49.8301C360.382 49.8301 450 139.601 450 250.172C450 259.795 449.32 269.261 448.009 278.525C446.51 289.099 444.188 299.408 441.106 309.386L325.425 193.507L118.347 400.939C111.651 395.067 105.352 388.755 99.4901 382.05L231.143 250.172L174.575 193.507L136.862 231.283L174.575 269.061L155.718 287.95L118.007 250.172L58.8937 309.386C55.8123 299.408 53.4884 289.099 51.991 278.525ZM423.296 253.769C423.32 252.573 423.333 251.374 423.333 250.172C423.333 154.343 345.665 76.5429 250 76.5429C154.334 76.5429 76.6654 154.343 76.6654 250.172C76.6654 251.374 76.6778 252.573 76.7025 253.769L174.575 155.729L250 231.283L325.425 155.729L423.296 253.769Z" fill="#025951"/>
</g>
</g>
<defs>
<clipPath id="clip0_99_270">
<rect width="500" height="586" fill="white"/>
</clipPath>
<clipPath id="clip1_99_270">
<rect width="500" height="586" fill="white"/>
</clipPath>
</defs>
</svg>
