<svg width="1350" height="500" viewBox="0 0 1350 500" fill="none" xmlns="http://www.w3.org/2000/svg">
<g clip-path="url(#clip0_99_451)">
<g clip-path="url(#clip1_99_451)">
<path d="M516.605 272.744V196.835H573.971V210.932H534.173V272.744H516.605ZM532.872 245.092V230.994H569.308V245.092H532.872Z" fill="#025951"/>
<path d="M609.126 274.046C604.029 274.046 599.258 273.07 595.029 271.226C590.691 269.274 587.221 266.563 584.401 262.985L594.161 251.273C596.222 254.092 598.39 256.044 600.776 257.454C603.053 258.864 605.548 259.623 608.259 259.623C615.416 259.623 618.994 255.394 618.994 247.044V210.932H592.318V196.835H636.454V246.068C636.454 255.394 634.176 262.442 629.513 267.105C624.85 271.66 618.127 274.046 609.126 274.046Z" fill="#025951"/>
<path d="M664.693 272.744V196.835H722.059V210.932H682.153V258.647H723.469V272.744H664.693ZM680.851 241.079V227.415H717.396V241.079H680.851Z" fill="#025951"/>
<path d="M748.322 272.744V196.835H765.89V258.43H803.953V272.744H748.322Z" fill="#025951"/>
<path d="M824.702 272.744V196.835H859.187C867.428 196.835 874.694 198.353 880.984 201.498C887.273 204.643 892.153 209.089 895.732 214.728C899.202 220.367 901.046 227.09 901.046 234.79C901.046 242.489 899.202 249.104 895.732 254.851C892.153 260.49 887.273 264.936 880.984 268.081C874.694 271.226 867.428 272.744 859.187 272.744H824.702ZM842.27 258.321H858.319C863.416 258.321 867.754 257.346 871.441 255.502C875.236 253.55 878.056 250.839 880.116 247.26C882.177 243.79 883.261 239.561 883.261 234.79C883.261 229.91 882.177 225.789 880.116 222.21C878.056 218.74 875.236 216.029 871.441 214.077C867.754 212.234 863.416 211.258 858.319 211.258H842.27V258.321Z" fill="#025951"/>
<path d="M925.119 272.744V196.835H939.65L971.966 250.405H964.267L996.04 196.835H1010.46L1010.68 272.744H994.197L994.088 222.102H997.125L971.749 264.72H963.833L937.915 222.102H941.602V272.744H925.119Z" fill="#025951"/>
<path d="M1029.51 272.744L1063.34 196.835H1080.69L1114.63 272.744H1096.2L1068.44 205.727H1075.38L1047.51 272.744H1029.51ZM1046.42 256.478L1051.09 243.14H1090.13L1094.9 256.478H1046.42Z" fill="#025951"/>
<path d="M1133.41 272.744V196.835H1147.94L1192.73 251.49H1185.68V196.835H1203.03V272.744H1188.61L1143.72 218.089H1150.76V272.744H1133.41Z" fill="#025951"/>
<path d="M1231.9 272.744V196.835H1246.43L1291.22 251.49H1284.17V196.835H1301.52V272.744H1287.1L1242.21 218.089H1249.25V272.744H1231.9Z" fill="#025951"/>
<path d="M529.328 358.179C525.441 358.179 521.763 357.624 518.154 356.583C514.614 355.542 511.699 354.223 509.548 352.558L513.365 344.091C515.447 345.548 517.876 346.797 520.722 347.7C523.637 348.671 526.482 349.157 529.397 349.157C531.618 349.157 533.422 348.949 534.811 348.463C536.199 348.047 537.17 347.422 537.795 346.659C538.42 345.826 538.767 344.923 538.767 343.952C538.767 342.633 538.281 341.592 537.24 340.829C536.199 340.065 534.88 339.441 533.214 338.955C531.549 338.469 529.675 337.983 527.662 337.567C525.649 337.15 523.637 336.595 521.624 335.97C519.611 335.346 517.807 334.513 516.141 333.472C514.475 332.431 513.087 331.112 512.046 329.447C511.075 327.781 510.519 325.629 510.519 323.062C510.519 320.285 511.283 317.787 512.74 315.497C514.267 313.206 516.558 311.402 519.542 310.014C522.596 308.626 526.413 307.932 530.993 307.932C534.047 307.932 537.031 308.279 540.016 309.042C543 309.736 545.637 310.847 547.858 312.235L544.388 320.771C542.098 319.453 539.877 318.481 537.587 317.856C535.296 317.301 533.075 316.954 530.924 316.954C528.703 316.954 526.968 317.232 525.58 317.717C524.192 318.203 523.22 318.897 522.596 319.73C521.971 320.563 521.693 321.465 521.693 322.506C521.693 323.756 522.179 324.797 523.22 325.56C524.261 326.323 525.58 326.948 527.246 327.365C528.911 327.85 530.785 328.336 532.798 328.753C534.811 329.169 536.823 329.724 538.836 330.349C540.849 330.973 542.653 331.806 544.319 332.778C545.984 333.819 547.373 335.138 548.344 336.803C549.385 338.469 549.94 340.551 549.94 343.119C549.94 345.826 549.177 348.324 547.65 350.615C546.123 352.905 543.902 354.709 540.849 356.097C537.795 357.485 533.978 358.179 529.328 358.179Z" fill="#025951"/>
<path d="M588.161 358.179C584.274 358.179 580.734 357.555 577.542 356.306C574.28 355.056 571.434 353.252 569.075 351.031C566.715 348.741 564.841 346.103 563.522 343.05C562.204 339.996 561.51 336.665 561.51 333.056C561.51 329.447 562.204 326.115 563.522 323.062C564.841 320.008 566.715 317.37 569.075 315.08C571.434 312.79 574.28 311.055 577.542 309.806C580.734 308.556 584.274 307.932 588.091 307.932C591.978 307.932 595.448 308.556 598.71 309.806C601.902 311.055 604.748 312.79 607.108 315.08C609.467 317.301 611.341 320.008 612.66 322.992C613.978 326.046 614.673 329.447 614.673 333.056C614.673 336.665 613.978 339.996 612.66 343.119C611.341 346.173 609.467 348.81 607.108 351.031C604.748 353.321 601.902 355.056 598.71 356.306C595.448 357.555 591.978 358.179 588.161 358.179ZM588.091 348.602C590.243 348.602 592.255 348.255 594.129 347.491C595.934 346.728 597.53 345.687 598.918 344.299C600.306 342.911 601.347 341.245 602.111 339.371C602.874 337.428 603.29 335.346 603.29 333.056C603.29 330.765 602.874 328.614 602.111 326.74C601.347 324.866 600.306 323.2 598.918 321.812C597.53 320.424 595.934 319.383 594.129 318.62C592.255 317.856 590.243 317.509 588.091 317.509C585.94 317.509 583.927 317.856 582.053 318.62C580.249 319.383 578.652 320.424 577.264 321.812C575.876 323.2 574.835 324.866 574.072 326.74C573.308 328.683 572.892 330.765 572.892 333.056C572.892 335.346 573.308 337.428 574.072 339.371C574.835 341.245 575.876 342.911 577.264 344.299C578.583 345.687 580.249 346.728 582.053 347.491C583.927 348.255 585.94 348.602 588.091 348.602Z" fill="#025951"/>
<path d="M630.064 357.347V308.764H641.308V348.185H665.668V357.347H630.064Z" fill="#025951"/>
<path d="M699.907 358.179C693.036 358.179 687.623 356.236 683.736 352.419C679.85 348.602 677.906 343.119 677.906 335.97V308.764H689.15V335.554C689.15 340.204 690.121 343.535 691.995 345.548C693.938 347.63 696.576 348.602 699.976 348.602C703.447 348.602 706.084 347.63 707.958 345.548C709.832 343.535 710.803 340.204 710.803 335.554V308.764H721.908V335.97C721.908 343.119 719.964 348.602 716.078 352.419C712.191 356.236 706.778 358.179 699.907 358.179Z" fill="#025951"/>
<path d="M749.017 357.347V317.926H733.471V308.764H775.807V317.926H760.26V357.347H749.017Z" fill="#025951"/>
<path d="M800.015 308.764H788.771V357.347H800.015V308.764Z" fill="#025951"/>
<path d="M842.092 358.179C838.206 358.179 834.666 357.555 831.474 356.306C828.212 355.056 825.366 353.252 823.006 351.031C820.647 348.741 818.773 346.103 817.454 343.05C816.135 339.996 815.441 336.665 815.441 333.056C815.441 329.447 816.135 326.115 817.454 323.062C818.773 320.008 820.647 317.37 823.006 315.08C825.366 312.79 828.212 311.055 831.474 309.806C834.666 308.556 838.206 307.932 842.023 307.932C845.909 307.932 849.379 308.556 852.641 309.806C855.834 311.055 858.68 312.79 861.039 315.08C863.399 317.301 865.273 320.008 866.591 322.992C867.91 326.046 868.604 329.447 868.604 333.056C868.604 336.665 867.91 339.996 866.591 343.119C865.273 346.173 863.399 348.81 861.039 351.031C858.68 353.321 855.834 355.056 852.641 356.306C849.379 357.555 845.909 358.179 842.092 358.179ZM842.023 348.602C844.174 348.602 846.187 348.255 848.061 347.491C849.865 346.728 851.462 345.687 852.85 344.299C854.238 342.911 855.279 341.245 856.042 339.371C856.806 337.428 857.222 335.346 857.222 333.056C857.222 330.765 856.806 328.614 856.042 326.74C855.279 324.866 854.238 323.2 852.85 321.812C851.462 320.424 849.865 319.383 848.061 318.62C846.187 317.856 844.174 317.509 842.023 317.509C839.871 317.509 837.859 317.856 835.985 318.62C834.18 319.383 832.584 320.424 831.196 321.812C829.808 323.2 828.767 324.866 828.003 326.74C827.24 328.683 826.824 330.765 826.824 333.056C826.824 335.346 827.24 337.428 828.003 339.371C828.767 341.245 829.808 342.911 831.196 344.299C832.515 345.687 834.18 346.728 835.985 347.491C837.859 348.255 839.871 348.602 842.023 348.602Z" fill="#025951"/>
<path d="M883.996 357.347V308.764H893.296L921.96 343.744H917.448V308.764H928.553V357.347H919.322L890.589 322.367H895.101V357.347H883.996Z" fill="#025951"/>
<path d="M962.992 358.179C959.105 358.179 955.427 357.624 951.818 356.583C948.278 355.542 945.363 354.223 943.212 352.558L947.029 344.091C949.111 345.548 951.54 346.797 954.386 347.7C957.301 348.671 960.146 349.157 963.061 349.157C965.282 349.157 967.087 348.949 968.475 348.463C969.863 348.047 970.834 347.422 971.459 346.659C972.084 345.826 972.431 344.923 972.431 343.952C972.431 342.633 971.945 341.592 970.904 340.829C969.863 340.065 968.544 339.441 966.878 338.955C965.213 338.469 963.339 337.983 961.326 337.567C959.313 337.15 957.301 336.595 955.288 335.97C953.275 335.346 951.471 334.513 949.805 333.472C948.14 332.431 946.751 331.112 945.71 329.447C944.739 327.781 944.184 325.629 944.184 323.062C944.184 320.285 944.947 317.787 946.404 315.497C947.931 313.206 950.222 311.402 953.206 310.014C956.26 308.626 960.077 307.932 964.657 307.932C967.711 307.932 970.696 308.279 973.68 309.042C976.664 309.736 979.301 310.847 981.522 312.235L978.052 320.771C975.762 319.453 973.541 318.481 971.251 317.856C968.96 317.301 966.74 316.954 964.588 316.954C962.367 316.954 960.632 317.232 959.244 317.717C957.856 318.203 956.884 318.897 956.26 319.73C955.635 320.563 955.357 321.465 955.357 322.506C955.357 323.756 955.843 324.797 956.884 325.56C957.925 326.323 959.244 326.948 960.91 327.365C962.575 327.85 964.449 328.336 966.462 328.753C968.475 329.169 970.487 329.724 972.5 330.349C974.513 330.973 976.317 331.806 977.983 332.778C979.649 333.819 981.037 335.138 982.008 336.803C983.049 338.469 983.604 340.551 983.604 343.119C983.604 345.826 982.841 348.324 981.314 350.615C979.787 352.905 977.566 354.709 974.513 356.097C971.459 357.485 967.642 358.179 962.992 358.179Z" fill="#025951"/>
<path fill-rule="evenodd" clip-rule="evenodd" d="M51.991 278.05C50.6778 268.802 49.9999 259.353 49.9999 249.746C49.9999 139.363 139.616 49.7456 250 49.7456C360.382 49.7456 450 139.363 450 249.746C450 259.353 449.32 268.802 448.009 278.05C446.51 288.606 444.188 298.898 441.106 308.859L325.425 193.178L118.347 400.256C111.651 394.394 105.352 388.093 99.4901 381.399L231.143 249.746L174.575 193.178L136.862 230.889L174.575 268.602L155.718 287.459L118.007 249.746L58.8937 308.859C55.8123 298.898 53.4884 288.606 51.991 278.05ZM423.296 253.337C423.32 252.142 423.333 250.946 423.333 249.746C423.333 154.08 345.665 76.4129 250 76.4129C154.334 76.4129 76.6654 154.08 76.6654 249.746C76.6654 250.946 76.6778 252.142 76.7025 253.337L174.575 155.464L250 230.889L325.425 155.464L423.296 253.337Z" fill="#025951"/>
</g>
</g>
<defs>
<clipPath id="clip0_99_451">
<rect width="1350" height="500" fill="white"/>
</clipPath>
<clipPath id="clip1_99_451">
<rect width="1350" height="500" fill="white"/>
</clipPath>
</defs>
</svg>
